<svg xmlns="http://www.w3.org/2000/svg" width="215" height="54" viewBox="0 0 215 54">
	<g fill="none" fill-rule="evenodd">
		<path d="M1006 604 c-22 -8 -41 -16 -43 -17 -3 -3 26 -98 33 -105 1 -2 19 1
		38 8 36 12 36 12 36 71 0 65 -1 66 -64 43z"/>
		<path d="M724 453 c-35 -75 -37 -77 -46 -50 -5 15 -15 27 -22 27 -24 0 -151
		-48 -150 -56 1 -5 12 -42 24 -82 l21 -74 35 6 c31 6 34 5 31 -15 -2 -19 19
		-31 158 -95 88 -40 165 -73 170 -73 6 -1 19 20 29 46 l20 47 19 -58 c14 -42
		23 -56 36 -54 14 3 16 26 19 189 l2 185 -147 67 c-82 37 -151 67 -156 67 -4 0
		-24 -35 -43 -77z"/>
		<path d="M1480 482 c0 -26 -3 -28 -28 -24 -51 7 -79 -47 -51 -99 8 -15 19 -19
		50 -17 l39 2 0 83 c0 46 -2 83 -5 83 -3 0 -5 -13 -5 -28z m-4 -67 c7 -27 -11
		-65 -29 -65 -36 0 -52 71 -20 88 23 13 42 4 49 -23z"/>
		<path d="M1150 420 c0 -47 4 -80 10 -80 6 0 10 16 10 35 0 25 4 35 15 35 9 0
		25 -16 36 -35 12 -19 25 -35 31 -35 5 0 1 15 -10 34 -18 30 -19 36 -6 47 17
		14 18 51 2 67 -7 7 -29 12 -50 12 l-38 0 0 -80z m78 33 c-2 -22 -9 -29 -30
		-31 -25 -3 -28 0 -28 27 0 28 3 31 31 31 27 0 30 -3 27 -27z"/>
		<path d="M1286 438 c-20 -29 -20 -62 0 -82 17 -18 84 -22 84 -6 0 6 -11 8 -25
		4 -25 -6 -55 9 -55 27 0 5 18 9 40 9 35 0 40 3 40 23 0 48 -56 65 -84 25z m64
		-14 c0 -9 -11 -14 -30 -14 -34 0 -36 3 -15 24 18 17 45 11 45 -10z"/>
		<path d="M1284 215 c0 -50 1 -71 3 -48 2 23 2 64 0 90 -2 26 -3 8 -3 -42z"/>
		<path d="M1634 278 c-4 -13 -12 -26 -18 -30 -8 -6 -7 -8 2 -8 8 0 12 -17 12
		-49 0 -28 5 -53 10 -56 6 -4 10 15 10 49 0 44 4 55 18 59 16 4 16 5 0 6 -26 2
		-22 30 5 41 21 8 21 9 -5 9 -19 1 -29 -5 -34 -21z"/>
		<path d="M1150 216 c0 -41 5 -78 10 -81 6 -4 10 8 10 29 0 33 3 36 28 36 33 0
		52 16 52 45 0 31 -19 45 -62 45 l-38 0 0 -74z m64 58 c21 -8 21 -50 0 -58 -34
		-13 -44 -7 -44 29 0 36 10 42 44 29z"/>
		<path d="M1438 260 c-10 -11 -13 -20 -8 -20 6 0 10 -18 10 -39 0 -22 3 -46 6
		-55 7 -17 44 -22 44 -6 0 6 -7 10 -15 10 -23 0 -21 87 3 93 15 4 15 5 0 6 -9
		0 -18 8 -20 16 -2 13 -6 12 -20 -5z"/>
		<path d="M1712 244 c-29 -20 -30 -74 -2 -99 16 -15 26 -17 48 -9 23 8 27 16
		30 51 2 33 -1 44 -20 57 -28 20 -28 20 -56 0z m59 -25 c8 -16 8 -28 0 -45 -14
		-31 -48 -31 -62 0 -14 30 3 66 31 66 11 0 24 -10 31 -21z"/>
		<path d="M1843 252 c-21 -3 -23 -9 -23 -63 0 -38 4 -58 10 -54 6 3 10 26 10
		50 0 38 3 44 27 52 31 11 13 21 -24 15z"/>
		<path d="M1933 252 c-21 -3 -23 -8 -21 -65 1 -35 3 -47 5 -27 6 65 13 80 33
		80 20 0 27 -15 33 -80 3 -29 4 -28 5 11 3 89 59 94 65 7 l3 -53 2 57 c2 46 -2
		59 -16 67 -11 6 -24 6 -35 0 -9 -6 -24 -6 -34 -1 -10 4 -28 6 -40 4z"/>
		<path d="M1330 241 c0 -5 12 -9 27 -8 18 1 28 -3 31 -15 2 -12 -5 -17 -30 -20
		-29 -3 -33 -6 -33 -33 0 -29 2 -30 43 -30 l43 -1 -3 56 -3 55 -37 3 c-21 2
		-38 -1 -38 -7z m58 -68 c-4 -22 -48 -31 -48 -10 0 19 10 27 32 27 13 0 18 -6
		16 -17z"/>
		<path d="M1520 242 c0 -4 12 -8 27 -7 43 0 44 -33 1 -37 -26 -2 -34 -8 -36
		-27 -5 -33 11 -45 52 -37 34 7 36 9 36 46 0 58 -8 70 -46 70 -19 0 -34 -4 -34
		-8z m60 -67 c0 -19 -24 -29 -46 -21 -13 5 -14 9 -4 21 16 20 50 19 50 0z"/>
		<path d="M2100 241 c0 -5 12 -9 27 -8 18 1 28 -3 31 -15 2 -12 -5 -17 -30 -20
		-29 -3 -33 -6 -33 -33 0 -29 2 -30 43 -30 l43 -1 -3 56 -3 55 -37 3 c-21 2
		-38 -1 -38 -7z m58 -68 c-4 -22 -48 -31 -48 -10 0 19 10 27 32 27 13 0 18 -6
		16 -17z"/>
		<path d="M533 160 c-20 -8 -21 -12 -12 -40 13 -35 10 -34 44 -18 28 12 30 20
		15 49 -12 21 -15 22 -47 9z"/>
	</g>
</svg>