<?xml version="1.0" standalone="no"?>
<!DOCTYPE svg PUBLIC "-//W3C//DTD SVG 20010904//EN"
 "http://www.w3.org/TR/2001/REC-SVG-20010904/DTD/svg10.dtd">
<svg version="1.0" xmlns="http://www.w3.org/2000/svg"
 width="904.000000pt" height="164.000000pt" viewBox="0 0 904.000000 164.000000"
 preserveAspectRatio="xMidYMid meet">

<g transform="translate(0.000000,164.000000) scale(0.100000,-0.100000)"
fill="#000000" stroke="none">
<path d="M215 1617 c-144 -82 -215 -346 -215 -803 0 -489 91 -743 286 -800 69
-20 156 -14 212 15 46 23 113 95 141 149 32 64 60 179 67 277 l7 91 -97 27
c-53 15 -100 27 -106 27 -6 0 -10 -34 -10 -82 0 -159 -30 -252 -92 -287 -63
-36 -118 27 -137 158 -7 42 -14 198 -18 346 -6 319 7 579 34 634 41 82 122 72
168 -23 20 -42 44 -169 45 -238 0 -5 45 -8 100 -8 l100 0 0 260 0 260 -100 0
-100 0 0 -36 0 -36 -26 32 c-39 46 -74 60 -151 60 -52 0 -77 -6 -108 -23z"/>
<path d="M7532 1626 c-36 -19 -62 -66 -62 -111 0 -122 145 -181 227 -91 29 31
33 42 33 92 0 50 -3 59 -34 90 -30 30 -40 34 -87 34 -30 -1 -64 -6 -77 -14z"/>
<path d="M4340 1525 l0 -95 65 0 65 0 0 -176 0 -176 -41 35 c-88 76 -213 70
-283 -14 -71 -84 -91 -192 -91 -499 0 -274 11 -348 66 -460 43 -85 83 -113
170 -118 80 -5 103 6 149 70 l30 41 0 -51 0 -52 150 0 150 0 0 95 0 95 -50 0
-50 0 0 700 0 700 -165 0 -165 0 0 -95z m77 -567 c40 -43 48 -99 48 -343 0
-274 -7 -334 -42 -375 -50 -60 -131 -24 -150 68 -13 58 -8 509 6 572 6 30 21
65 33 77 28 30 78 30 105 1z"/>
<path d="M6211 1433 c-45 -86 -81 -160 -81 -165 0 -4 35 -8 78 -8 l77 1 80
112 c44 61 97 135 118 164 l38 53 -115 0 -115 0 -80 -157z"/>
<path d="M8053 1388 l-93 -70 0 -89 0 -89 -50 0 -50 0 0 -95 0 -95 50 0 50 0
0 -368 c0 -452 7 -488 101 -541 37 -21 51 -23 142 -19 56 2 108 7 115 11 8 6
12 37 12 98 l0 89 -27 -7 c-51 -14 -95 -8 -115 16 -17 22 -18 48 -18 372 l0
349 65 0 65 0 0 95 0 95 -65 0 -65 0 0 160 c0 122 -3 160 -12 159 -7 -1 -55
-33 -105 -71z"/>
<path d="M1123 1160 c-120 -25 -211 -115 -229 -227 l-6 -39 79 -23 c43 -12 85
-24 94 -27 13 -3 18 5 23 35 9 59 49 101 96 101 79 0 99 -46 100 -227 l0 -102
-37 25 c-47 32 -71 37 -143 32 -161 -12 -251 -159 -237 -387 12 -195 96 -301
238 -301 70 0 116 20 156 68 l23 27 0 -42 0 -43 145 0 145 0 0 95 0 95 -45 0
-45 0 0 358 c0 399 -2 416 -66 490 -63 74 -187 113 -291 92z m118 -643 l34
-23 3 -121 3 -121 -31 -26 c-59 -49 -136 -25 -160 50 -17 50 -8 184 13 214 37
53 86 62 138 27z"/>
<path d="M2583 1160 c-86 -18 -136 -60 -178 -152 -40 -88 -56 -179 -62 -360
-7 -192 6 -323 44 -442 45 -143 151 -219 283 -203 122 15 192 89 241 258 17
61 22 110 26 274 7 283 -21 432 -102 538 -55 72 -154 106 -252 87z m110 -232
c26 -52 40 -263 31 -458 -8 -185 -19 -236 -56 -263 l-28 -21 -27 20 c-15 11
-31 34 -36 50 -5 16 -12 142 -14 280 -7 351 9 439 80 432 26 -2 36 -10 50 -40z"/>
<path d="M5117 1159 c-119 -29 -185 -119 -224 -309 -23 -109 -22 -446 1 -555
34 -160 98 -250 200 -280 102 -31 190 -10 261 62 44 44 100 144 111 200 6 29
5 30 -82 62 -97 35 -98 35 -109 -36 -13 -87 -94 -136 -137 -83 -26 32 -38 84
-45 198 l-6 102 191 0 192 0 0 158 c0 221 -24 311 -107 403 -20 22 -53 49 -72
59 -45 22 -125 31 -174 19z m114 -209 c23 -31 39 -112 39 -196 l0 -64 -92 0
-91 0 6 103 c6 108 15 143 42 171 25 24 74 17 96 -14z"/>
<path d="M6220 1159 c-120 -24 -197 -138 -229 -339 -14 -82 -14 -405 -1 -485
37 -230 125 -330 290 -330 64 0 82 4 121 27 26 15 59 42 74 59 34 42 82 136
90 181 l7 35 -87 32 c-47 17 -88 31 -89 31 -2 0 -7 -17 -11 -37 -19 -103 -67
-156 -119 -132 -14 7 -32 27 -41 45 -17 35 -34 149 -35 227 l0 47 196 0 197 0
-6 158 c-2 86 -10 182 -17 212 -44 197 -177 303 -340 269z m108 -201 c27 -30
41 -94 42 -190 l0 -78 -91 0 -92 0 7 93 c7 105 18 152 42 178 23 26 66 24 92
-3z"/>
<path d="M8682 1159 c-112 -22 -179 -108 -219 -280 -24 -106 -24 -482 1 -589
46 -202 126 -285 276 -285 119 0 183 44 239 165 44 95 61 212 61 419 -1 250
-30 387 -103 483 -55 72 -157 107 -255 87z m111 -227 c29 -50 44 -294 30 -505
-11 -170 -18 -196 -58 -223 -23 -15 -27 -15 -49 -1 -45 30 -51 71 -51 362 0
149 4 291 8 316 15 90 81 118 120 51z"/>
<path d="M1774 1131 c-118 -72 -159 -294 -82 -445 21 -41 93 -116 202 -210 90
-78 106 -105 106 -182 0 -46 -4 -65 -18 -77 -60 -54 -122 27 -122 157 l0 46
-100 0 -100 0 0 -195 0 -195 95 0 95 0 0 38 0 37 18 -23 c33 -42 74 -62 130
-62 63 0 98 16 141 65 55 63 65 97 65 230 0 101 -3 127 -21 167 -29 62 -79
116 -191 205 -102 81 -131 126 -132 198 0 52 23 85 59 85 46 0 64 -31 71 -118
l5 -77 98 -3 97 -3 0 186 0 185 -95 0 -95 0 0 -37 -1 -38 -20 28 c-12 15 -34
34 -50 42 -40 21 -117 19 -155 -4z"/>
<path d="M3182 1130 c-37 -23 -87 -97 -102 -150 -5 -19 -10 -74 -10 -122 0
-147 40 -216 203 -352 56 -46 111 -99 121 -117 27 -45 28 -140 2 -168 -53 -59
-112 3 -123 130 l-6 69 -98 0 -99 0 0 -195 0 -195 100 0 100 0 0 31 0 31 41
-37 c40 -36 43 -37 108 -33 50 2 74 9 96 26 79 62 109 148 103 291 -7 152 -50
222 -220 353 -90 70 -117 108 -124 175 -6 63 11 97 52 101 46 5 65 -24 77
-118 l11 -80 93 0 93 0 0 185 0 185 -95 0 -95 0 0 -36 0 -37 -21 27 c-45 58
-143 75 -207 36z"/>
<path d="M6690 1045 l0 -95 38 0 37 0 63 -174 c34 -95 62 -180 62 -187 0 -8
-28 -94 -62 -191 l-62 -178 -38 0 -38 0 0 -95 0 -95 100 0 99 0 53 166 53 166
50 -166 50 -166 118 0 117 0 0 95 0 95 -44 0 -44 0 -57 162 c-32 90 -64 178
-71 196 -12 31 -9 43 48 202 l61 170 38 0 39 0 0 95 0 95 -103 0 -103 0 -44
-147 -45 -146 -45 144 -46 144 -112 3 -112 3 0 -96z"/>
<path d="M7420 1045 l0 -95 40 0 40 0 0 -365 0 -365 -40 0 -40 0 0 -95 0 -95
175 0 175 0 0 95 0 95 -30 0 -30 0 0 460 0 460 -145 0 -145 0 0 -95z"/>
</g>
</svg>
