<?xml version="1.0" standalone="no"?>
<!DOCTYPE svg PUBLIC "-//W3C//DTD SVG 20010904//EN"
 "http://www.w3.org/TR/2001/REC-SVG-20010904/DTD/svg10.dtd">
<svg version="1.0" xmlns="http://www.w3.org/2000/svg"
 width="32" height="32" viewBox="0 0 62.000000 62.000000"
 preserveAspectRatio="xMidYMid meet">

<g transform="translate(0.000000,62.000000) scale(0.100000,-0.100000)"
fill="#C7CECB" stroke="none">
<path d="M214 609 c-53 -15 -127 -72 -161 -122 -43 -64 -56 -117 -51 -203 8
-114 65 -200 171 -256 35 -19 58 -23 137 -23 87 0 100 3 149 30 51 28 53 30
28 35 -39 8 -74 43 -81 85 -8 42 7 65 55 85 37 16 33 29 -14 55 -24 13 -37 28
-39 45 -3 22 -8 25 -48 28 -25 2 -48 7 -53 11 -4 4 18 53 48 110 30 56 55 106
55 111 0 20 -136 27 -196 9z m-61 -256 c-9 -42 -10 -121 -3 -170 8 -55 -13
-37 -28 23 -12 48 -12 66 -2 113 15 65 18 71 31 71 6 0 7 -14 2 -37z m62 -88
c0 -116 -19 -124 -23 -10 -3 79 1 105 15 105 4 0 8 -43 8 -95z m65 0 c0 -67
-14 -87 -25 -36 -7 34 3 101 16 101 5 0 9 -29 9 -65z"/>
<path d="M433 578 c-27 -35 -93 -169 -88 -178 3 -5 24 -10 46 -10 37 0 39 -2
39 -29 0 -25 8 -34 50 -57 28 -15 50 -33 50 -40 0 -8 -15 -21 -32 -30 -50 -25
-68 -45 -68 -74 0 -58 85 -83 127 -38 46 51 58 89 58 188 0 88 -2 99 -31 150
-28 50 -35 55 -65 55 -30 0 -34 3 -34 28 0 38 -33 60 -52 35z"/>
</g>
</svg>
