<?xml version="1.0" standalone="no"?>
<!DOCTYPE svg PUBLIC "-//W3C//DTD SVG 20010904//EN"
 "http://www.w3.org/TR/2001/REC-SVG-20010904/DTD/svg10.dtd">
<svg version="1.0" xmlns="http://www.w3.org/2000/svg"
 width="32" height="32" viewBox="0 0 62.000000 62.000000"
 preserveAspectRatio="xMidYMid meet">

<g transform="translate(0.000000,62.000000) scale(0.100000,-0.100000)"
fill="#C7CECB" stroke="none">
<path d="M214 610 c-54 -17 -128 -73 -161 -123 -43 -64 -56 -117 -51 -203 8
-114 65 -200 171 -256 35 -19 58 -23 137 -23 86 0 100 3 148 29 60 33 101 76
134 139 19 35 23 58 23 137 0 79 -4 102 -23 137 -33 63 -75 106 -134 138 -44
24 -67 29 -133 32 -44 1 -94 -2 -111 -7z m182 -96 c4 -16 0 -40 -10 -60 -26
-55 -22 -61 39 -66 66 -6 100 -30 83 -58 -9 -14 -9 -22 0 -33 10 -11 9 -17 -2
-26 -8 -7 -12 -19 -9 -27 3 -9 1 -25 -5 -37 -5 -12 -13 -30 -16 -39 -9 -31
-72 -40 -171 -26 l-90 13 -3 84 c-3 75 -1 85 18 98 11 8 29 32 40 53 11 22 31
50 45 64 14 14 25 36 25 50 0 13 3 31 6 40 9 23 42 2 50 -30z m-206 -275 l0
-90 -42 3 -43 3 -3 74 c-2 41 -1 80 2 88 3 8 21 13 46 13 l40 0 0 -91z"/>
</g>
</svg>
