<?xml version="1.0" standalone="no"?>
<!DOCTYPE svg PUBLIC "-//W3C//DTD SVG 20010904//EN"
 "http://www.w3.org/TR/2001/REC-SVG-20010904/DTD/svg10.dtd">
<svg version="1.0" xmlns="http://www.w3.org/2000/svg"
 width="32" height="32" viewBox="0 0 62.000000 62.000000"
 preserveAspectRatio="xMidYMid meet">

<g transform="translate(0.000000,62.000000) scale(0.100000,-0.100000)"
fill="#C7CECB" stroke="none">
<path d="M214 610 c-54 -17 -128 -73 -161 -123 -43 -64 -56 -117 -51 -203 8
-114 65 -200 171 -256 35 -19 58 -23 137 -23 86 0 100 3 148 29 60 33 101 76
134 139 19 35 23 58 23 137 0 79 -4 102 -23 137 -33 63 -75 106 -134 138 -44
24 -67 29 -133 32 -44 1 -94 -2 -111 -7z m67 -87 c27 -16 31 -16 64 0 33 16
38 16 66 2 16 -9 37 -31 46 -50 15 -32 15 -35 -6 -70 -16 -27 -21 -53 -21
-101 l0 -64 -35 0 c-42 0 -43 -9 -10 -58 25 -37 32 -62 16 -62 -4 0 -20 18
-35 40 -14 22 -31 40 -36 40 -6 0 -10 -27 -10 -61 0 -37 -4 -58 -10 -54 -5 3
-10 31 -10 61 0 30 -4 54 -9 54 -4 0 -20 -18 -35 -40 -25 -38 -46 -52 -46 -29
0 5 11 27 25 47 34 50 32 62 -9 62 -25 0 -36 5 -41 19 -4 14 -15 18 -43 17
-35 -1 -37 1 -40 32 -4 43 10 60 47 54 36 -5 47 11 27 40 -30 43 -16 96 32
122 35 19 38 19 73 -1z"/>
</g>
</svg>
