<?xml version="1.0" standalone="no"?>
<!DOCTYPE svg PUBLIC "-//W3C//DTD SVG 20010904//EN"
 "http://www.w3.org/TR/2001/REC-SVG-20010904/DTD/svg10.dtd">
<svg version="1.0" xmlns="http://www.w3.org/2000/svg"
 width="32" height="32" viewBox="0 0 62.000000 62.000000"
 preserveAspectRatio="xMidYMid meet">

<g transform="translate(0.000000,62.000000) scale(0.100000,-0.100000)"
fill="#C7CECB" stroke="none">
<path d="M214 610 c-54 -17 -128 -73 -161 -123 -43 -64 -56 -117 -51 -203 8
-114 65 -200 171 -256 35 -19 58 -23 137 -23 86 0 100 3 148 29 60 33 101 76
134 139 19 35 23 58 23 137 0 79 -4 102 -23 137 -33 63 -75 106 -134 138 -44
24 -67 29 -133 32 -44 1 -94 -2 -111 -7z m211 -243 c-55 -40 -105 -76 -111
-80 -6 -3 -60 30 -120 73 l-108 80 219 0 219 0 -99 -73z m-277 -10 c31 -24 80
-59 107 -79 l50 -36 108 79 c59 43 110 79 112 79 3 0 5 -52 5 -115 l0 -115
-225 0 -225 0 0 115 c0 63 3 115 6 115 3 0 31 -19 62 -43z"/>
</g>
</svg>
