<?xml version="1.0" standalone="no"?>
<!DOCTYPE svg PUBLIC "-//W3C//DTD SVG 20010904//EN"
 "http://www.w3.org/TR/2001/REC-SVG-20010904/DTD/svg10.dtd">
<svg version="1.0" xmlns="http://www.w3.org/2000/svg"
 width="32" height="32" viewBox="0 0 62.000000 62.000000"
 preserveAspectRatio="xMidYMid meet">

<g transform="translate(0.000000,62.000000) scale(0.100000,-0.100000)"
fill="#C7CECB" stroke="none">
<path d="M214 610 c-54 -17 -128 -73 -161 -123 -43 -64 -56 -117 -51 -203 8
-114 65 -200 171 -256 35 -19 58 -23 137 -23 86 0 100 3 148 29 60 33 101 76
134 139 19 35 23 58 23 137 0 79 -4 102 -23 137 -33 63 -75 106 -134 138 -44
24 -67 29 -133 32 -44 1 -94 -2 -111 -7z m96 -145 c65 0 65 0 69 30 l4 30 6
-30 c5 -26 11 -31 46 -35 35 -4 40 -9 43 -32 l3 -28 -171 0 -171 0 3 28 c3 23
8 27 39 30 32 3 38 7 44 35 l8 32 6 -30 c6 -30 7 -30 71 -30z m170 -203 c0
-78 -4 -122 -12 -130 -17 -17 -299 -17 -316 0 -8 8 -12 52 -12 130 l0 118 170
0 170 0 0 -118z"/>
<path d="M212 433 c4 -23 36 -29 44 -8 9 21 -5 33 -16 15 -7 -10 -10 -11 -10
-2 0 6 -5 12 -11 12 -6 0 -9 -8 -7 -17z"/>
<path d="M362 433 c4 -23 36 -29 44 -8 9 21 -5 33 -16 15 -7 -10 -10 -11 -10
-2 0 6 -5 12 -11 12 -6 0 -9 -8 -7 -17z"/>
<path d="M165 361 c-3 -2 -5 -17 -5 -33 0 -25 3 -28 36 -28 34 0 35 1 32 32
-3 27 -7 32 -31 33 -15 0 -30 -1 -32 -4z"/>
<path d="M395 362 c-3 -3 -5 -18 -5 -34 0 -27 3 -29 33 -26 26 2 33 8 35 29 3
23 -1 27 -28 31 -16 3 -32 2 -35 0z"/>
<path d="M240 330 c0 -27 3 -30 30 -30 27 0 30 3 30 30 0 27 -3 30 -30 30 -27
0 -30 -3 -30 -30z"/>
<path d="M319 355 c-9 -38 -2 -50 29 -53 30 -3 32 -1 32 27 0 28 -3 31 -30 31
-16 0 -30 -2 -31 -5z"/>
<path d="M164 276 c-12 -31 1 -51 34 -54 31 -3 32 -2 32 32 0 33 -2 36 -30 36
-17 0 -33 -6 -36 -14z"/>
<path d="M240 255 c0 -32 2 -35 30 -35 28 0 30 3 30 35 0 32 -2 35 -30 35 -28
0 -30 -3 -30 -35z"/>
<path d="M319 285 c-1 -3 -1 -17 -2 -32 -1 -24 3 -28 31 -31 31 -3 32 -2 32
32 0 33 -2 36 -30 36 -16 0 -30 -2 -31 -5z"/>
<path d="M390 255 c0 -35 1 -36 33 -33 28 3 32 6 32 33 0 27 -4 30 -32 33 -32
3 -33 2 -33 -33z"/>
<path d="M162 178 c3 -28 7 -32 33 -32 26 0 30 4 33 32 3 31 2 32 -33 32 -35
0 -36 -1 -33 -32z"/>
<path d="M240 182 c0 -36 5 -40 35 -34 20 3 25 10 25 33 0 26 -4 29 -30 29
-26 0 -30 -4 -30 -28z"/>
<path d="M318 203 c-2 -5 -3 -19 -3 -32 0 -21 5 -25 30 -25 26 0 30 4 33 32 3
30 1 32 -27 32 -16 0 -31 -3 -33 -7z"/>
<path d="M392 179 c3 -29 6 -33 33 -33 27 0 30 3 30 30 0 26 -4 29 -33 32 -32
3 -33 2 -30 -29z"/>
</g>
</svg>
