<?xml version="1.0" standalone="no"?>
<!DOCTYPE svg PUBLIC "-//W3C//DTD SVG 20010904//EN"
 "http://www.w3.org/TR/2001/REC-SVG-20010904/DTD/svg10.dtd">
<svg version="1.0" xmlns="http://www.w3.org/2000/svg"
 width="32" height="32" viewBox="0 0 62.000000 62.000000"
 preserveAspectRatio="xMidYMid meet">

<g transform="translate(0.000000,62.000000) scale(0.100000,-0.100000)"
fill="#C7CECB" stroke="none">
<path d="M214 610 c-54 -17 -128 -73 -161 -123 -43 -64 -56 -117 -51 -203 8
-114 65 -200 171 -256 35 -19 58 -23 137 -23 86 0 100 3 148 29 60 33 101 76
134 139 19 35 23 58 23 137 0 79 -4 102 -23 137 -33 63 -75 106 -134 138 -44
24 -67 29 -133 32 -44 1 -94 -2 -111 -7z m286 -105 c10 -13 -3 -30 -81 -108
-52 -51 -108 -113 -124 -137 -25 -36 -37 -45 -60 -45 -27 0 -30 3 -30 30 0 23
9 35 45 60 24 16 85 72 135 122 49 51 93 93 96 93 4 0 12 -7 19 -15z m-303
-338 c-13 -20 -65 -43 -75 -33 -1 2 3 16 8 33 14 38 49 57 69 38 12 -12 12
-17 -2 -38z"/>
<path d="M156 183 c-11 -11 -6 -23 9 -23 8 0 15 4 15 9 0 13 -16 22 -24 14z"/>
</g>
</svg>
