<?xml version="1.0" standalone="no"?>
<!DOCTYPE svg PUBLIC "-//W3C//DTD SVG 20010904//EN"
 "http://www.w3.org/TR/2001/REC-SVG-20010904/DTD/svg10.dtd">
<svg version="1.0" xmlns="http://www.w3.org/2000/svg"
 width="32" height="32" viewBox="0 0 62.000000 62.000000"
 preserveAspectRatio="xMidYMid meet">

<g transform="translate(0.000000,62.000000) scale(0.100000,-0.100000)"
fill="#C7CECB" stroke="none">
<path d="M214 610 c-54 -17 -128 -73 -161 -123 -43 -64 -56 -117 -51 -203 8
-114 65 -200 171 -256 35 -19 58 -23 137 -23 86 0 100 3 148 29 60 33 101 76
134 139 19 35 23 58 23 137 0 79 -4 102 -23 137 -33 63 -75 106 -134 138 -44
24 -67 29 -133 32 -44 1 -94 -2 -111 -7z m176 -273 c45 -115 55 -147 42 -145
-9 2 -24 23 -33 48 l-17 45 -70 3 -70 3 -17 -51 c-10 -31 -22 -50 -32 -50 -8
0 -13 6 -10 13 58 147 110 274 114 280 16 27 40 -10 93 -146z"/>
<path d="M283 387 l-32 -77 60 0 59 0 -24 63 c-12 34 -25 68 -28 76 -2 8 -18
-20 -35 -62z"/>
</g>
</svg>
