<?xml version="1.0" standalone="no"?>
<!DOCTYPE svg PUBLIC "-//W3C//DTD SVG 20010904//EN"
 "http://www.w3.org/TR/2001/REC-SVG-20010904/DTD/svg10.dtd">
<svg version="1.0" xmlns="http://www.w3.org/2000/svg"
 width="32" height="32" viewBox="0 0 62.000000 62.000000"
 preserveAspectRatio="xMidYMid meet">

<g transform="translate(0.000000,62.000000) scale(0.100000,-0.100000)"
fill="#C7CECB" stroke="none">
<path d="M214 610 c-54 -17 -128 -73 -161 -123 -43 -64 -56 -117 -51 -203 8
-114 66 -202 171 -256 51 -26 163 -35 225 -18 40 10 43 13 30 28 -8 9 -27 38
-42 65 -26 45 -29 47 -72 47 -77 0 -132 42 -155 117 -23 78 29 161 118 191 62
20 141 -16 174 -79 25 -49 24 -102 -1 -155 l-21 -41 36 -54 c19 -29 35 -58 35
-63 0 -19 58 47 86 97 26 47 29 61 29 147 0 79 -4 102 -23 137 -33 63 -75 106
-134 138 -44 24 -67 29 -133 32 -44 1 -94 -2 -111 -7z"/>
<path d="M249 371 c-49 -50 -35 -127 29 -160 33 -17 77 -4 107 31 35 41 33 87
-4 127 -40 42 -90 43 -132 2z"/>
</g>
</svg>
