<?xml version="1.0" standalone="no"?>
<!DOCTYPE svg PUBLIC "-//W3C//DTD SVG 20010904//EN"
 "http://www.w3.org/TR/2001/REC-SVG-20010904/DTD/svg10.dtd">
<svg version="1.0" xmlns="http://www.w3.org/2000/svg"
 width="32" height="32" viewBox="0 0 62.000000 62.000000"
 preserveAspectRatio="xMidYMid meet">

<g transform="translate(0.000000,62.000000) scale(0.100000,-0.100000)"
fill="#C7CECB" stroke="none">
<path d="M214 610 c-54 -17 -128 -73 -161 -123 -43 -64 -56 -117 -51 -203 8
-114 65 -200 171 -256 35 -19 58 -23 137 -23 86 0 100 3 148 29 60 33 101 76
134 139 19 35 23 58 23 137 0 79 -4 102 -23 137 -33 63 -75 106 -134 138 -44
24 -67 29 -133 32 -44 1 -94 -2 -111 -7z m154 -126 c63 -26 100 -71 114 -136
7 -33 17 -58 24 -58 35 0 57 -87 34 -130 -16 -30 -48 -44 -66 -29 -11 9 -14
38 -14 124 0 100 -2 116 -23 146 -59 89 -185 89 -244 0 -21 -30 -23 -46 -23
-146 0 -86 -3 -115 -14 -124 -18 -15 -50 -1 -66 29 -23 43 -1 130 34 130 7 0
17 25 24 58 13 65 50 109 112 136 45 19 62 20 108 0z"/>
</g>
</svg>
