<?xml version="1.0" standalone="no"?>
<!DOCTYPE svg PUBLIC "-//W3C//DTD SVG 20010904//EN"
 "http://www.w3.org/TR/2001/REC-SVG-20010904/DTD/svg10.dtd">
<svg version="1.0" xmlns="http://www.w3.org/2000/svg"
 width="32" height="32" viewBox="0 0 62.000000 62.000000"
 preserveAspectRatio="xMidYMid meet">

<g transform="translate(0.000000,62.000000) scale(0.100000,-0.100000)"
fill="#C7CECB" stroke="none">
<path d="M214 610 c-54 -17 -128 -73 -161 -123 -43 -64 -56 -117 -51 -203 8
-114 65 -200 171 -256 35 -19 58 -23 137 -23 86 0 100 3 148 29 60 33 101 76
134 139 19 35 23 58 23 137 0 79 -4 102 -23 137 -33 63 -75 106 -134 138 -44
24 -67 29 -133 32 -44 1 -94 -2 -111 -7z m294 -138 c9 -7 12 -42 10 -143 l-3
-134 -205 0 -205 0 -3 134 c-2 101 1 136 10 143 17 10 379 10 396 0z m-145
-317 l18 -25 -66 0 c-36 0 -65 2 -65 5 0 3 6 14 12 25 19 30 78 27 101 -5z"/>
<path d="M120 350 l0 -110 190 0 190 0 0 110 0 110 -190 0 -190 0 0 -110z"/>
</g>
</svg>
