<svg version="1.0" xmlns="http://www.w3.org/2000/svg" width="15" height="15" viewBox="0 0 225.000000 200.000000" preserveAspectRatio="xMidYMid meet">
	<g transform="translate(0.000000,225.000000) scale(0.100000,-0.100000)"
	fill="#525252" stroke="none">
		<path fill="#525252" fill-rule="evenodd" d="M1192 2139 c-104 -18 -179 -62 -242 -145 -72 -92 -98 -202 -116 -476
		l-6 -98 -94 0 -94 0 0 -155 0 -155 95 0 95 0 0 -510 0 -510 220 0 220 0 0 515
		0 514 132 3 132 3 27 124 c15 68 30 138 33 155 l6 31 -151 -3 c-84 -2 -156 1
		-160 5 -5 5 -10 70 -11 144 -3 117 -1 139 15 163 29 44 109 75 215 82 l92 7 0
		158 0 159 -177 -1 c-98 -1 -202 -5 -231 -10z"/>
	</g>
</svg>
